<svg xmlns="http://www.w3.org/2000/svg" width="58" height="58" viewBox="0 0 58 58" fill="none"><path d="M29.9193 14.5906C22.5729 14.5906 16.5859 20.5624 16.5859 27.9061C16.5859 30.3271 17.2655 32.6997 18.5438 34.7979L18.8836 35.3628L17.5567 40.3178L22.5568 38.9782L23.1231 39.3171C25.1943 40.5438 27.5406 41.2055 29.9193 41.2055C37.2818 41.2055 43.2689 35.2337 43.2689 27.9061C43.2689 20.5624 37.2818 14.5906 29.9193 14.5906ZM37.751 32.9257C37.2656 34.12 36.0358 34.8948 34.7737 35.1369C33.5924 35.3628 32.6054 34.9755 31.4889 34.6204C30.5018 34.2814 29.5633 33.8134 28.6733 33.2808C26.9095 32.1994 25.3723 30.7468 24.1425 29.0843C23.7704 28.5679 23.4306 28.0514 23.1069 27.5026C22.6862 26.7763 22.2979 26.0177 22.1037 25.2107C22.0228 24.8718 21.9742 24.5167 21.9742 24.1616C21.9581 22.935 22.4273 21.6922 23.4144 20.8852C23.9807 20.4333 24.8221 20.2235 25.4532 20.5947C26.149 20.9821 26.505 21.9666 26.8286 22.6445C27.0714 23.1932 27.3626 23.9034 27.2655 24.5006C27.1523 25.1139 26.6668 25.6142 26.2946 26.0662C26.0357 26.3728 25.9872 26.6311 26.2137 26.9539C27.4759 29.0682 29.2396 30.6015 31.5374 31.5053C31.8448 31.6345 32.0876 31.5861 32.2817 31.344C32.6863 30.8598 33.0746 29.9075 33.6895 29.6493C34.4824 29.3265 35.3724 29.7784 36.0358 30.1819C36.6669 30.5531 37.7348 31.0212 37.8967 31.7959C37.9776 32.1671 37.9128 32.5706 37.751 32.9257ZM29.9193 14.5906C22.5729 14.5906 16.5859 20.5624 16.5859 27.9061C16.5859 30.3271 17.2655 32.6997 18.5438 34.7979L18.8836 35.3628L17.5567 40.3178L22.5568 38.9782L23.1231 39.3171C25.1943 40.5438 27.5406 41.2055 29.9193 41.2055C37.2818 41.2055 43.2689 35.2337 43.2689 27.9061C43.2689 20.5624 37.2818 14.5906 29.9193 14.5906ZM37.751 32.9257C37.2656 34.12 36.0358 34.8948 34.7737 35.1369C33.5924 35.3628 32.6054 34.9755 31.4889 34.6204C30.5018 34.2814 29.5633 33.8134 28.6733 33.2808C26.9095 32.1994 25.3723 30.7468 24.1425 29.0843C23.7704 28.5679 23.4306 28.0514 23.1069 27.5026C22.6862 26.7763 22.2979 26.0177 22.1037 25.2107C22.0228 24.8718 21.9742 24.5167 21.9742 24.1616C21.9581 22.935 22.4273 21.6922 23.4144 20.8852C23.9807 20.4333 24.8221 20.2235 25.4532 20.5947C26.149 20.9821 26.505 21.9666 26.8286 22.6445C27.0714 23.1932 27.3626 23.9034 27.2655 24.5006C27.1523 25.1139 26.6668 25.6142 26.2946 26.0662C26.0357 26.3728 25.9872 26.6311 26.2137 26.9539C27.4759 29.0682 29.2396 30.6015 31.5374 31.5053C31.8448 31.6345 32.0876 31.5861 32.2817 31.344C32.6863 30.8598 33.0746 29.9075 33.6895 29.6493C34.4824 29.3265 35.3724 29.7784 36.0358 30.1819C36.6669 30.5531 37.7348 31.0212 37.8967 31.7959C37.9776 32.1671 37.9128 32.5706 37.751 32.9257ZM28.6248 0C12.8156 0 0 12.7829 0 28.5517C0 44.3205 12.8156 57.1035 28.6248 57.1035C44.4339 57.1035 57.2495 44.3205 57.2495 28.5517C57.2495 12.7829 44.4339 0 28.6248 0ZM29.9193 44.3044C27.2008 44.3044 24.5147 43.6104 22.1037 42.3192L13.1554 44.7079L15.5502 35.8147C14.191 33.3937 13.479 30.6661 13.479 27.9061C13.479 18.8516 20.8577 11.4917 29.9193 11.4917C38.997 11.4917 46.3757 18.8516 46.3757 27.9061C46.3757 36.9445 38.997 44.3044 29.9193 44.3044ZM29.9193 14.5906C22.5729 14.5906 16.5859 20.5624 16.5859 27.9061C16.5859 30.3271 17.2655 32.6997 18.5438 34.7979L18.8836 35.3628L17.5567 40.3178L22.5568 38.9782L23.1231 39.3171C25.1943 40.5438 27.5406 41.2055 29.9193 41.2055C37.2818 41.2055 43.2689 35.2337 43.2689 27.9061C43.2689 20.5624 37.2818 14.5906 29.9193 14.5906ZM37.751 32.9257C37.2656 34.12 36.0358 34.8948 34.7737 35.1369C33.5924 35.3628 32.6054 34.9755 31.4889 34.6204C30.5018 34.2814 29.5633 33.8134 28.6733 33.2808C26.9095 32.1994 25.3723 30.7468 24.1425 29.0843C23.7704 28.5679 23.4306 28.0514 23.1069 27.5026C22.6862 26.7763 22.2979 26.0177 22.1037 25.2107C22.0228 24.8718 21.9742 24.5167 21.9742 24.1616C21.9581 22.935 22.4273 21.6922 23.4144 20.8852C23.9807 20.4333 24.8221 20.2235 25.4532 20.5947C26.149 20.9821 26.505 21.9666 26.8286 22.6445C27.0714 23.1932 27.3626 23.9034 27.2655 24.5006C27.1523 25.1139 26.6668 25.6142 26.2946 26.0662C26.0357 26.3728 25.9872 26.6311 26.2137 26.9539C27.4759 29.0682 29.2396 30.6015 31.5374 31.5053C31.8448 31.6345 32.0876 31.5861 32.2817 31.344C32.6863 30.8598 33.0746 29.9075 33.6895 29.6493C34.4824 29.3265 35.3724 29.7784 36.0358 30.1819C36.6669 30.5531 37.7348 31.0212 37.8967 31.7959C37.9776 32.1671 37.9128 32.5706 37.751 32.9257ZM29.9193 14.5906C22.5729 14.5906 16.5859 20.5624 16.5859 27.9061C16.5859 30.3271 17.2655 32.6997 18.5438 34.7979L18.8836 35.3628L17.5567 40.3178L22.5568 38.9782L23.1231 39.3171C25.1943 40.5438 27.5406 41.2055 29.9193 41.2055C37.2818 41.2055 43.2689 35.2337 43.2689 27.9061C43.2689 20.5624 37.2818 14.5906 29.9193 14.5906ZM37.751 32.9257C37.2656 34.12 36.0358 34.8948 34.7737 35.1369C33.5924 35.3628 32.6054 34.9755 31.4889 34.6204C30.5018 34.2814 29.5633 33.8134 28.6733 33.2808C26.9095 32.1994 25.3723 30.7468 24.1425 29.0843C23.7704 28.5679 23.4306 28.0514 23.1069 27.5026C22.6862 26.7763 22.2979 26.0177 22.1037 25.2107C22.0228 24.8718 21.9742 24.5167 21.9742 24.1616C21.9581 22.935 22.4273 21.6922 23.4144 20.8852C23.9807 20.4333 24.8221 20.2235 25.4532 20.5947C26.149 20.9821 26.505 21.9666 26.8286 22.6445C27.0714 23.1932 27.3626 23.9034 27.2655 24.5006C27.1523 25.1139 26.6668 25.6142 26.2946 26.0662C26.0357 26.3728 25.9872 26.6311 26.2137 26.9539C27.4759 29.0682 29.2396 30.6015 31.5374 31.5053C31.8448 31.6345 32.0876 31.5861 32.2817 31.344C32.6863 30.8598 33.0746 29.9075 33.6895 29.6493C34.4824 29.3265 35.3724 29.7784 36.0358 30.1819C36.6669 30.5531 37.7348 31.0212 37.8967 31.7959C37.9776 32.1671 37.9128 32.5706 37.751 32.9257ZM29.9193 14.5906C22.5729 14.5906 16.5859 20.5624 16.5859 27.9061C16.5859 30.3271 17.2655 32.6997 18.5438 34.7979L18.8836 35.3628L17.5567 40.3178L22.5568 38.9782L23.1231 39.3171C25.1943 40.5438 27.5406 41.2055 29.9193 41.2055C37.2818 41.2055 43.2689 35.2337 43.2689 27.9061C43.2689 20.5624 37.2818 14.5906 29.9193 14.5906ZM37.751 32.9257C37.2656 34.12 36.0358 34.8948 34.7737 35.1369C33.5924 35.3628 32.6054 34.9755 31.4889 34.6204C30.5018 34.2814 29.5633 33.8134 28.6733 33.2808C26.9095 32.1994 25.3723 30.7468 24.1425 29.0843C23.7704 28.5679 23.4306 28.0514 23.1069 27.5026C22.6862 26.7763 22.2979 26.0177 22.1037 25.2107C22.0228 24.8718 21.9742 24.5167 21.9742 24.1616C21.9581 22.935 22.4273 21.6922 23.4144 20.8852C23.9807 20.4333 24.8221 20.2235 25.4532 20.5947C26.149 20.9821 26.505 21.9666 26.8286 22.6445C27.0714 23.1932 27.3626 23.9034 27.2655 24.5006C27.1523 25.1139 26.6668 25.6142 26.2946 26.0662C26.0357 26.3728 25.9872 26.6311 26.2137 26.9539C27.4759 29.0682 29.2396 30.6015 31.5374 31.5053C31.8448 31.6345 32.0876 31.5861 32.2817 31.344C32.6863 30.8598 33.0746 29.9075 33.6895 29.6493C34.4824 29.3265 35.3724 29.7784 36.0358 30.1819C36.6669 30.5531 37.7348 31.0212 37.8967 31.7959C37.9776 32.1671 37.9128 32.5706 37.751 32.9257Z" fill="#00BED6"></path></svg>